<svg width="18" height="16" viewBox="0 0 18 16" fill="none" xmlns="http://www.w3.org/2000/svg">
<path fill-rule="evenodd" clip-rule="evenodd" d="M9.20551 0.453557C9.31001 0.34879 9.43416 0.265668 9.57084 0.208954C9.70751 0.152239 9.85403 0.123047 10.002 0.123047C10.15 0.123047 10.2965 0.152239 10.4332 0.208954C10.5699 0.265668 10.694 0.34879 10.7985 0.453557L17.5485 7.20356C17.6533 7.30806 17.7364 7.43221 17.7931 7.56888C17.8498 7.70556 17.879 7.85208 17.879 8.00006C17.879 8.14803 17.8498 8.29456 17.7931 8.43123C17.7364 8.56791 17.6533 8.69205 17.5485 8.79656L10.7985 15.5466C10.5873 15.7578 10.3008 15.8765 10.002 15.8765C9.70326 15.8765 9.41676 15.7578 9.20551 15.5466C8.99427 15.3353 8.87559 15.0488 8.87559 14.7501C8.87559 14.4513 8.99427 14.1648 9.20551 13.9536L15.1613 8.00006L9.20551 2.04656C9.10074 1.94205 9.01762 1.81791 8.96091 1.68123C8.90419 1.54456 8.875 1.39803 8.875 1.25006C8.875 1.10208 8.90419 0.955558 8.96091 0.818882C9.01762 0.682205 9.10074 0.55806 9.20551 0.453557Z" fill="#0601EC"/>
<path fill-rule="evenodd" clip-rule="evenodd" d="M0 8C0 7.70163 0.118527 7.41548 0.329505 7.20451C0.540484 6.99353 0.826631 6.875 1.125 6.875H15.75C16.0484 6.875 16.3345 6.99353 16.5455 7.20451C16.7565 7.41548 16.875 7.70163 16.875 8C16.875 8.29837 16.7565 8.58452 16.5455 8.7955C16.3345 9.00647 16.0484 9.125 15.75 9.125H1.125C0.826631 9.125 0.540484 9.00647 0.329505 8.7955C0.118527 8.58452 0 8.29837 0 8Z" fill="#0601EC"/>
</svg>
