<svg width="26" height="31" viewBox="0 0 26 31" fill="none" xmlns="http://www.w3.org/2000/svg">
<path d="M23.1799 13.467C22.6851 13.9618 21.9075 14.9515 21.1299 15.1636C19.7868 15.517 18.8678 14.4567 18.2316 13.9618C17.1006 13.1136 15.2626 13.1842 13.7074 15.0222C12.435 16.5067 12.5057 18.0619 11.3747 19.1929C10.5264 20.1119 9.32465 20.536 7.91085 20.536C6.63843 20.536 5.29531 20.2533 4.72979 19.8998C4.02289 19.5464 3.9522 19.6877 4.23496 19.9705C4.72979 20.536 5.64876 21.3136 6.8505 21.8791C8.68844 22.7981 10.9505 23.2929 13.1419 23.0102V26.5447C10.385 26.6861 8.2643 27.393 8.2643 28.3119C8.2643 29.3016 10.8798 30.0792 14.0609 30.0792C17.2419 30.0792 19.8575 29.3016 19.8575 28.3119C19.8575 27.393 17.7368 26.6861 14.9799 26.5447V22.586C19.5747 21.3843 21.7661 18.6981 23.1092 15.1636C23.3213 14.5981 23.5334 14.1739 23.6041 13.8912C23.7454 12.9722 23.5334 13.0429 23.1799 13.467Z" fill="#FFCC21"/>
<path d="M23.1106 0.389786C21.202 0.107025 19.3641 2.58118 16.6071 2.4398C13.7795 2.29842 9.96227 -1.02402 8.26571 0.319095C7.41743 1.026 7.77088 2.4398 8.47778 3.78291C9.18468 5.19671 10.3157 6.68121 10.7399 7.52949C11.8002 9.5795 10.7399 12.195 8.68985 13.3968C6.71053 14.5985 3.60016 10.5692 2.04498 10.9226C0.843243 11.2054 0.207031 12.195 0.207031 13.1847C0.207031 14.4571 0.772552 16.083 1.90359 17.2847C3.03464 18.4865 4.80189 19.1934 6.42776 19.2641C7.70019 19.3347 9.11399 19.1227 10.245 18.0623C11.6588 16.7899 11.3054 15.0933 13.0019 13.2554C14.6985 11.4174 16.7485 10.7105 18.0916 11.9123C18.6572 12.4778 19.6468 13.6795 21.0606 13.6088C21.6968 13.6088 22.5451 12.9019 23.1106 12.4778C23.3227 12.3364 23.4641 12.195 23.5348 12.1244C23.6055 12.0537 23.6055 12.0537 23.6762 11.983C23.7469 11.8416 23.8175 11.4174 23.9589 10.9226C24.3124 9.72088 24.8072 7.74156 24.9486 6.32776C25.3727 2.15704 24.6658 0.672546 23.1106 0.389786Z" fill="#FFCC21"/>
</svg>
