<svg width="23" height="57" viewBox="0 0 23 57" fill="none" xmlns="http://www.w3.org/2000/svg">
<path d="M18.8587 35.1393C18.3943 32.1982 19.7875 28.483 20.5615 25.3871C21.6451 21.3624 21.4903 21.3624 21.6451 19.6596C22.1095 16.8732 22.4191 15.6349 21.9547 15.1705C21.6451 14.7061 20.2519 14.3965 18.3943 13.6225C16.8464 13.0033 14.9888 12.3841 14.3696 11.6101C13.4408 10.5265 13.4408 9.13336 13.4408 8.35938C12.9764 8.66897 12.2024 8.82377 11.1189 8.82377C10.0353 8.82377 9.10649 8.66897 8.6421 8.35938C8.6421 9.13336 8.6421 10.5265 7.71331 11.6101C7.09412 12.3841 5.08176 13.0033 3.68858 13.6225C1.83101 14.3965 0.437833 14.5513 0.128238 15.1705C-0.181357 15.6349 0.128239 16.5636 0.437834 19.6596C0.592632 21.2076 0.592632 21.5172 1.36662 25.3871C1.98581 28.483 3.68858 32.353 3.37898 35.1393C2.75979 38.8545 1.52142 40.4024 0.74743 43.1888C-0.336152 47.5231 0.128239 53.2506 0.437834 55.263C2.4502 55.5726 7.24892 56.1918 11.4284 56.1918C15.4532 56.1918 19.9423 55.5726 21.7999 55.263C21.9547 53.2506 22.4191 47.5231 21.4903 43.1888C20.8711 40.4024 19.4779 38.8545 18.8587 35.1393Z" fill="#FF692E"/>
<path d="M11.2736 7.12068C13.286 7.12068 13.5956 6.1919 13.5956 6.1919C13.5956 6.1919 13.286 5.10832 11.738 4.95352V3.40554C11.738 3.40554 12.3572 2.16716 12.3572 1.39318C12.3572 0.61919 12.2024 0 11.1188 0C10.0353 0 9.72566 0.928785 9.88046 1.54797C10.1901 2.63156 10.8092 3.56034 10.8092 3.56034V5.10831C9.41607 5.26311 8.79688 6.34669 8.79688 6.34669C8.79688 6.34669 9.26127 7.12068 11.2736 7.12068Z" fill="#FF692E"/>
</svg>
