<svg width="16" height="16" viewBox="0 0 16 16" fill="none" xmlns="http://www.w3.org/2000/svg">
<path d="M4.71947 8.00006C4.53181 7.8313 4.28729 7.73973 4.03494 7.74373C3.78259 7.74773 3.54109 7.84699 3.35888 8.02162C3.17666 8.19624 3.06721 8.4333 3.05249 8.68525C3.03776 8.9372 3.11884 9.1854 3.27947 9.38006L5.49947 11.7101C5.59242 11.8076 5.7041 11.8853 5.82783 11.9386C5.95155 11.9918 6.08476 12.0195 6.21947 12.0201C6.35346 12.0208 6.48624 11.9947 6.60992 11.9432C6.73361 11.8916 6.84568 11.8158 6.93947 11.7201L13.7195 4.72006C13.8114 4.62551 13.8838 4.51378 13.9325 4.39124C13.9813 4.26871 14.0054 4.13778 14.0036 4.00592C14.0017 3.87406 13.9739 3.74386 13.9217 3.62275C13.8695 3.50163 13.794 3.39199 13.6995 3.30006C13.6049 3.20814 13.4932 3.13573 13.3707 3.08699C13.2481 3.03824 13.1172 3.01411 12.9853 3.01597C12.8535 3.01783 12.7233 3.04564 12.6022 3.09781C12.481 3.14999 12.3714 3.22551 12.2795 3.32006L6.22947 9.58006L4.71947 8.00006Z" fill="white"/>
</svg>
