<svg width="51" height="62" viewBox="0 0 51 62" fill="none" xmlns="http://www.w3.org/2000/svg">
<path d="M1.48051e-06 0.490945C4.97793e-07 0.48556 0 0.482849 0 0.482849L1.48051e-06 0.490945ZM1.48051e-06 0.490945L0 0.982849H8.87882e-05M1.48051e-06 0.490945L8.87882e-05 0.982849M8.87882e-05 0.982849C0.000859979 5.40529 0.00624714 37.9752 0 50.8747C-0.00170272 54.4099 2.40935 56.7288 6.02709 56.8298C8.56355 56.8982 10.736 56.8649 12.9111 56.8314C15.0533 56.7985 17.1981 56.7656 19.6955 56.8298C23.2954 56.8789 24.7414 57.8249 25.4204 60.2849C25.3306 60.6445 25.2552 61.0286 25.1888 61.4369L25.6823 61.5172L26.1758 61.4369C26.1094 61.0287 26.0316 60.6437 25.9374 60.2823C26.586 57.8263 27.9063 56.9607 31.5125 56.8298M8.87882e-05 0.982849L31.528 57.3296M31.5125 56.8298L31.5254 57.3296C31.5263 57.3296 31.5271 57.3296 31.528 57.3296M31.5125 56.8298L31.5307 57.3295C31.5298 57.3295 31.5289 57.3295 31.528 57.3296M31.5125 56.8298C34.0098 56.7656 36.1544 56.7985 38.2967 56.8314C40.4717 56.8649 42.6443 56.8982 45.1809 56.8298M31.528 57.3296C34.0137 57.2657 36.1489 57.2985 38.2919 57.3314L38.3382 57.3321C40.4936 57.3652 42.6594 57.3978 45.1846 57.3299M45.1809 56.8298L45.1701 57.3297C45.1748 57.3298 45.1796 57.3299 45.1846 57.3299M45.1809 56.8298L45.1944 57.3296C45.1911 57.3297 45.1878 57.3298 45.1846 57.3299M45.1809 56.8298C45.8429 56.8441 50.9797 55.6343 50.9882 51.6389C51.0159 37.788 50.9861 0.483064 50.9861 0.483064C51.4861 0.482664 51.4861 0.482807 51.4861 0.483091V0.48437L51.4861 0.489468L51.4861 0.50976L51.4862 0.59011L51.4864 0.905015L51.4873 2.1127L51.4903 6.52807C51.4927 10.2419 51.4955 15.3379 51.4975 20.8667C51.5015 31.9242 51.5021 44.7138 51.4882 51.6399V51.64C51.4834 53.8905 50.024 55.3262 48.582 56.1696C47.857 56.5936 47.1148 56.8826 46.5111 57.0652C45.939 57.2382 45.4385 57.3315 45.1846 57.3299M50.4865 0.983062L0.500089 0.982851L0.500276 2.07985L0.500944 6.40842C0.501468 10.0504 0.502097 15.0507 0.502516 20.4838C0.503355 31.3501 0.503355 43.9482 0.500001 50.8749C0.499206 52.5244 1.05849 53.8537 2.00632 54.7831L50.4865 0.983062ZM50.4865 0.983062L50.4873 2.11343L50.4903 6.5287C50.4927 10.2424 50.4955 15.3383 50.4975 20.8671C50.5015 31.9248 50.5021 44.7131 50.4882 51.6378C50.4845 53.3827 49.3712 54.5495 48.0772 55.3064C47.4341 55.6825 46.7675 55.9429 46.2216 56.108C45.9493 56.1904 45.7108 56.2478 45.525 56.2839C45.432 56.3019 45.3546 56.3141 45.2944 56.3215C45.2644 56.3251 45.2402 56.3274 45.2217 56.3287C45.2178 56.3289 45.2143 56.3292 45.2112 56.3293C45.2068 56.3296 45.2031 56.3297 45.1999 56.3298L45.1939 56.3299H45.1922L45.1917 56.3299L45.1796 56.3297L45.1674 56.33C42.6617 56.3976 40.5125 56.3654 38.3535 56.3322L38.3014 56.3314C36.1607 56.2986 34.0073 56.2655 31.4997 56.3299L31.4944 56.3301C29.3993 56.4062 27.9318 56.7269 26.9265 57.5676C26.3481 58.0515 25.9559 58.6793 25.6735 59.4496C25.3743 58.6697 24.9573 58.0305 24.3543 57.5386C23.3095 56.6863 21.8061 56.3589 19.7054 56.3299L50.4865 0.983062Z" fill="#233874" stroke="#233874"/>
<g clip-path="url(#clip0)">
<rect width="44.8881" height="44.8881" transform="translate(3.54492 5.20789)" fill="#233874"/>
<path d="M22.606 14.9241C22.2428 14.9241 21.9485 15.2185 21.9485 15.5817C21.9485 15.9448 22.2428 16.2392 22.606 16.2392H28.1181C28.118 16.2392 28.1183 16.2392 28.1181 16.2392C28.1184 16.2392 28.1192 16.2392 28.1194 16.2392H29.3724C29.7355 16.2392 30.0299 15.9448 30.0299 15.5817C30.0299 15.2185 29.7355 14.9241 29.3724 14.9241H29.349C30.0542 13.6777 30.6519 11.9217 29.9777 10.5109C29.5963 9.71256 28.8876 9.17347 27.8666 8.89502C27.8599 8.893 27.8529 8.89125 27.8461 8.8895C27.485 8.79262 27.0854 8.72783 26.6467 8.69627V7.65823H26.9345C27.2977 7.65823 27.592 7.36383 27.592 7.00069C27.592 6.63755 27.2977 6.34315 26.9345 6.34315H26.6467V5.86543C26.6467 5.50229 26.3524 5.20789 25.9892 5.20789C25.626 5.20789 25.3317 5.50229 25.3317 5.86543V6.34306H25.0439C24.6807 6.34306 24.3864 6.63747 24.3864 7.0006C24.3864 7.36374 24.6807 7.65814 25.0439 7.65814H25.3317V8.69618C24.8924 8.72774 24.4925 8.79271 24.1311 8.88976C24.1247 8.89143 24.1183 8.89309 24.112 8.89493C23.0908 9.17338 22.3822 9.71247 22.0006 10.5109C21.3265 11.9217 21.9243 13.6778 22.6294 14.9241H22.606ZM25.9892 9.98724C26.3282 9.98724 26.6369 10.0067 26.9184 10.0434L26.6513 11.5473C26.642 11.6001 26.5962 11.6384 26.5426 11.6384H25.4354C25.3818 11.6384 25.336 11.6001 25.3267 11.5473L25.0597 10.0435C25.3411 10.0067 25.65 9.98724 25.9892 9.98724ZM23.1872 11.0779C23.3118 10.8171 23.5152 10.6034 23.7935 10.4358L24.0317 11.7771C24.1527 12.4587 24.7429 12.9534 25.4353 12.9534H26.5425C27.2348 12.9534 27.8251 12.4587 27.9461 11.7772L28.1845 10.4355C28.4631 10.6032 28.6665 10.817 28.7912 11.0778C29.2938 12.1295 28.5547 13.8667 27.7932 14.924H24.1853C23.4237 13.8667 22.6846 12.1296 23.1872 11.0779ZM32.2751 20.8918C32.6383 20.8918 32.9326 20.5974 32.9326 20.2343V19.777C32.9326 19.4138 32.6383 19.1194 32.2751 19.1194C31.9119 19.1194 31.6176 19.4138 31.6176 19.777V20.2343C31.6176 20.5974 31.9119 20.8918 32.2751 20.8918ZM19.7032 19.1194C19.34 19.1194 19.0457 19.4138 19.0457 19.777V20.2343C19.0457 20.5974 19.34 20.8918 19.7032 20.8918C20.0664 20.8918 20.3607 20.5974 20.3607 20.2343V19.777C20.3607 19.4138 20.0664 19.1194 19.7032 19.1194ZM29.1197 31.2911C28.7565 31.2911 28.4622 31.5855 28.4622 31.9486V32.4683C28.4622 32.8314 28.7565 33.1258 29.1197 33.1258C29.4829 33.1258 29.7772 32.8314 29.7772 32.4683V31.9486C29.7772 31.5855 29.4828 31.2911 29.1197 31.2911ZM47.6502 25.6822C47.4946 24.7672 46.5271 24.1936 44.6925 23.9285C43.3285 23.7313 41.8442 23.7488 41.0348 23.78C40.6076 23.3747 39.9631 23.1496 39.1126 23.1096C38.6906 23.0902 38.2752 23.2452 37.9698 23.5358C37.663 23.8278 37.4934 24.2208 37.4924 24.6422C37.4876 26.4755 36.9289 27.8704 35.832 28.7884C34.8357 29.6222 33.5418 29.9076 32.6339 29.8407V27.4732C32.6339 26.6535 32.0067 25.9779 31.2071 25.9002C31.5058 24.9783 31.8817 24.0469 32.2328 23.3759C32.4063 23.0445 32.745 22.8386 33.1168 22.8386H34.1529C34.1527 22.8386 34.1532 22.8386 34.1529 22.8386C34.1532 22.8386 34.1544 22.8386 34.1547 22.8386H35.9888C36.1788 22.8386 36.3651 22.873 36.5424 22.9408L37.1457 23.1715C37.5257 23.3168 37.9532 23.2423 38.2614 22.977C38.5698 22.7117 38.7072 22.3001 38.6202 21.9027L38.4528 21.1386C38.2357 20.1472 37.5031 19.3314 36.5406 19.0095L35.7656 18.7503C35.661 18.7153 35.569 18.6458 35.5069 18.5546L35.3845 18.3752C35.0444 17.8768 34.4812 17.5792 33.8779 17.5792H31.3111C30.3848 17.5792 29.0732 17.5303 28.3819 17.1077C28.0975 16.9338 27.7443 16.9068 27.4371 17.0353C27.133 17.1627 26.9067 17.4302 26.832 17.7508C26.4298 19.4736 27.1269 20.3929 27.6626 20.8246C27.121 21.8231 26.4706 23.1907 25.9895 24.7283C25.5083 23.1907 24.8581 21.8231 24.3163 20.8246C24.852 20.393 25.5491 19.4736 25.1469 17.7509C25.0721 17.4302 24.8459 17.1627 24.5418 17.0353C24.2346 16.9068 23.8816 16.9338 23.5969 17.1078C22.9057 17.5304 21.5941 17.5793 20.6678 17.5793H18.101C17.4977 17.5793 16.9345 17.8768 16.5944 18.3753L16.472 18.5546C16.4098 18.6459 16.3178 18.7153 16.2132 18.7503L15.4382 19.0095C14.4757 19.3314 13.743 20.1472 13.5259 21.1386L13.3586 21.9028C13.2715 22.3002 13.409 22.7118 13.7173 22.9771C14.0257 23.2425 14.4533 23.317 14.8331 23.1716L15.4362 22.941C15.6136 22.8731 15.7999 22.8387 15.9899 22.8387H17.824C17.8237 22.8387 17.8242 22.8387 17.824 22.8387C17.8242 22.8387 17.8254 22.8387 17.8257 22.8387H18.8618C19.2336 22.8387 19.5723 23.0446 19.7458 23.376C20.097 24.047 20.4729 24.9784 20.7716 25.9003C19.9719 25.978 19.3448 26.6536 19.3448 27.4732V29.8408C18.4373 29.9076 17.1429 29.6223 16.1466 28.7885C15.0497 27.8705 14.491 26.4755 14.4863 24.6424C14.4851 24.2209 14.3157 23.8279 14.0088 23.536C13.7035 23.2453 13.2879 23.0905 12.8661 23.1098C11.8778 23.1563 11.2924 23.4578 10.947 23.7801C10.4532 23.7609 9.7925 23.7498 9.05702 23.7775C8.69406 23.7911 8.41096 24.0964 8.42455 24.4593C8.43823 24.8221 8.74333 25.1072 9.10629 25.0916C9.77689 25.0666 10.5196 25.0723 11.1972 25.1081C11.4281 25.1197 11.6482 25.0105 11.7772 24.8189C11.9281 24.5949 12.3474 24.4508 12.9278 24.4235C13.0157 24.4201 13.0748 24.4626 13.1021 24.4886C13.1335 24.5185 13.1709 24.57 13.1711 24.6458C13.1784 27.4352 14.3343 28.9867 15.3025 29.7971C16.466 30.7707 17.9243 31.1654 19.0924 31.1654C19.1783 31.1654 19.2621 31.1625 19.3447 31.1583V35.6574C18.9291 36.2071 18.5756 36.3882 18.385 36.4123C18.2022 36.1259 18.0355 34.942 18.3201 33.3676C18.3718 33.0819 18.23 32.7962 17.9712 32.6645C17.7122 32.5329 17.398 32.5865 17.1974 32.7966C16.4453 33.5847 15.4132 34.3768 14.5043 34.8638C13.6215 35.3367 13.0233 35.4318 12.7776 35.3185C12.8231 34.9941 13.3343 34.0973 14.4173 32.9591C14.6342 32.7311 14.6592 32.3815 14.477 32.1249C14.2948 31.8684 13.9565 31.7772 13.6697 31.9067C11.6734 32.8105 9.47337 33.1851 8.92525 32.9893C8.96768 32.6578 9.59427 31.9555 11.0214 31.217C11.3075 31.069 11.4442 30.7357 11.3446 30.4295C11.2449 30.1234 10.9384 29.9341 10.6198 29.983C8.15943 30.3598 6.77334 29.6002 6.61158 29.2727C6.66997 29.1904 7.00032 28.8313 8.47873 28.469C8.79619 28.3912 9.00827 28.092 8.97671 27.7667C8.94506 27.4413 8.67924 27.1887 8.35284 27.1735C6.50357 27.0876 5.91529 26.5956 5.74819 26.3881C5.63071 26.2422 5.59275 26.0925 5.62492 25.903C5.63229 25.8598 5.73819 25.7127 6.13456 25.5533C6.47148 25.4179 6.63482 25.0349 6.49936 24.698C6.36382 24.3611 5.98078 24.1976 5.64395 24.3332C4.87059 24.6441 4.42794 25.098 4.32843 25.6824C4.23287 26.2437 4.36972 26.773 4.72392 27.2129C5.01525 27.5748 5.43783 27.8614 5.98806 28.0715C5.57662 28.3767 5.28107 28.774 5.28879 29.2888C5.29317 29.5748 5.40346 30.0046 5.90442 30.4281C6.40336 30.8499 7.28087 31.2356 8.48882 31.3597C7.78385 32.036 7.4912 32.7256 7.65015 33.3811C7.7301 33.7106 7.95744 33.9815 8.29033 34.1439C9.08998 34.534 10.5866 34.3117 11.9892 33.9113C11.6671 34.4397 11.4433 34.9765 11.4613 35.4318C11.4743 35.7632 11.6035 36.0482 11.8349 36.2557C13.0322 37.3298 15.2524 36.138 16.8564 34.8694C16.8402 35.7227 16.9369 36.6812 17.3633 37.2407C17.6393 37.6028 17.9714 37.7033 18.2014 37.7239C18.2501 37.7283 18.2988 37.7304 18.3478 37.7304C18.6816 37.7304 19.0187 37.6287 19.3481 37.4328C19.354 37.5544 19.3687 37.6736 19.3909 37.7902C18.7599 38.6554 18.4148 39.7024 18.4148 40.7756V41.8749C18.4148 42.9975 19.1743 43.9455 20.2064 44.2336V44.3204C20.2064 44.6004 19.9785 44.8282 19.6986 44.8282H17.4613L16.812 43.0445C16.6139 42.5003 16.0407 42.1999 15.49 42.3265L14.6861 40.1177C15.2623 39.8203 15.6258 39.2005 15.5872 38.5424L15.4982 37.034C15.4768 36.6714 15.1675 36.3954 14.803 36.4163C14.4405 36.4377 14.164 36.7489 14.1853 37.1114L14.2743 38.6198C14.2788 38.6957 14.2576 38.7693 14.2176 38.8305L13.7005 37.4098C13.5763 37.0686 13.1993 36.8925 12.8577 37.0168C12.5165 37.141 12.3405 37.5184 12.4647 37.8596L12.9818 39.2803C12.9118 39.2593 12.8483 39.2165 12.803 39.1555L11.9015 37.9428C11.6846 37.6513 11.2729 37.5906 10.9815 37.8074C10.6901 38.024 10.6294 38.4359 10.8461 38.7274L11.7476 39.9402C12.0663 40.3688 12.5714 40.6093 13.088 40.6093C13.2089 40.6093 13.3303 40.5946 13.4503 40.5676L14.2544 42.7767C13.7512 43.0335 13.5052 43.6321 13.7032 44.1764L15.5858 49.3486C15.7536 49.8095 16.1904 50.0963 16.6548 50.0963C16.7836 50.0963 16.9144 50.0742 17.0423 50.0277L18.0154 49.6736C18.6042 49.4593 18.9088 48.8059 18.6946 48.2171L17.9399 46.1435H19.6986C20.7037 46.1435 21.5214 45.3258 21.5214 44.3207V44.2339C22.5534 43.9458 23.313 42.9979 23.313 41.8751V40.7759C23.313 40.7197 23.3406 40.6671 23.387 40.6353L24.4528 39.9025C24.5109 39.9161 24.5652 39.9433 24.6101 39.984L25.1305 40.4567C25.1791 40.5009 25.2307 40.5394 25.2838 40.5748C25.1644 40.9791 24.8269 41.3074 24.3389 41.754C23.4336 42.5822 22.194 43.7166 23.4475 46.058C23.5661 46.2793 23.793 46.4052 24.0278 46.4052C24.1325 46.4052 24.2387 46.3802 24.3375 46.3272C24.6576 46.1558 24.7783 45.7573 24.6069 45.4371C23.8357 43.9968 24.3592 43.5177 25.2265 42.7241C25.2613 42.6924 25.2966 42.66 25.3321 42.6273V46.0142C25.3321 46.3773 25.6264 46.6717 25.9896 46.6717C26.3529 46.6717 26.6472 46.3773 26.6472 46.0142V42.6273C26.6827 42.66 26.718 42.6923 26.7527 42.7241C27.6202 43.5177 28.1436 43.9968 27.3724 45.4371C27.201 45.7573 27.3216 46.1558 27.6417 46.3272C27.7405 46.3801 27.8468 46.4052 27.9515 46.4052C28.1862 46.4052 28.4133 46.2793 28.5318 46.058C29.7853 43.7166 28.5456 42.5822 27.6404 41.754C27.1524 41.3074 26.815 40.9791 26.6956 40.5748C26.7486 40.5394 26.8002 40.5009 26.8488 40.4568L27.3692 39.984C27.4141 39.9433 27.4684 39.9162 27.5264 39.9025L28.5923 40.6353C28.6386 40.6671 28.6663 40.7197 28.6663 40.7759V41.8751C28.6663 42.9978 29.4258 43.9458 30.4577 44.2339V44.3207C30.4577 45.3258 31.2755 46.1435 32.2806 46.1435H33.685C34.1122 47.5029 35.3839 48.4917 36.8824 48.4917C37.4121 48.4917 37.9398 48.3648 38.4085 48.1246C38.7317 47.959 38.8595 47.5628 38.6939 47.2395C38.5282 46.9163 38.132 46.7885 37.8089 46.9541C37.5208 47.1018 37.209 47.1766 36.8824 47.1766C35.76 47.1766 34.8468 46.2634 34.8468 45.141C34.8468 44.0185 35.76 43.1053 36.8824 43.1053C37.9472 43.1053 38.8391 43.9361 38.9131 44.9967C38.9383 45.359 39.2524 45.632 39.6147 45.6069C39.977 45.5816 40.2502 45.2674 40.2249 44.9052C40.1188 43.3824 38.9891 42.1475 37.54 41.8559V40.7762H37.8277C38.1909 40.7762 38.4853 40.4818 38.4853 40.1186C38.4853 39.7555 38.1909 39.4611 37.8277 39.4611H37.54V38.9834C37.54 38.6203 37.2456 38.3259 36.8824 38.3259C36.5192 38.3259 36.2249 38.6203 36.2249 38.9834V39.4611H35.9372C35.5739 39.4611 35.2796 39.7555 35.2796 40.1186C35.2796 40.4818 35.5739 40.7762 35.9372 40.7762H36.2249V41.8554C34.7908 42.1419 33.6846 43.3466 33.5468 44.8283H32.2805C32.0006 44.8283 31.7727 44.6005 31.7727 44.3205V44.2337C32.8047 43.9456 33.5643 42.9977 33.5643 41.875V40.7757C33.5643 39.7024 33.2192 38.6555 32.5882 37.7903C32.6104 37.6737 32.6251 37.5545 32.631 37.4329C32.9604 37.6288 33.2975 37.7304 33.6314 37.7304C33.6802 37.7304 33.729 37.7283 33.7777 37.7239C34.0077 37.7033 34.3398 37.6028 34.6158 37.2407C35.0422 36.6813 35.1389 35.7228 35.1227 34.8694C36.2889 35.7917 37.7804 36.6735 38.9681 36.6734C39.4141 36.6734 39.8173 36.549 40.1442 36.2557C40.3756 36.0482 40.5047 35.7632 40.5178 35.4318C40.5357 34.9765 40.3119 34.4397 39.9899 33.9113C41.3925 34.3117 42.8891 34.5341 43.6888 34.1439C44.0217 33.9815 44.249 33.7106 44.3289 33.3811C44.4879 32.7257 44.1952 32.0361 43.4903 31.3597C44.698 31.2355 45.5758 30.8498 46.0747 30.4281C46.5757 30.0045 46.686 29.5747 46.6903 29.2888C46.6973 28.8236 46.4641 28.4148 45.9958 28.0698C46.5437 27.8598 46.9647 27.5737 47.2552 27.213C47.6089 26.7728 47.7458 26.2436 47.6502 25.6822ZM16.7597 48.7304L14.9995 43.8941L15.6369 43.6621L17.3971 48.4984L16.7597 48.7304ZM35.4526 20.0321L36.1234 20.2564C36.6492 20.4323 37.0496 20.878 37.1682 21.4197L37.2523 21.8041L37.0123 21.7123C36.6843 21.5869 36.34 21.5234 35.9889 21.5234H34.9339C35.0491 21.043 35.2283 20.5268 35.4526 20.0321ZM28.8863 21.3266C29.166 20.8185 29.0198 20.1816 28.5463 19.8449C28.1334 19.5515 27.966 19.0707 28.0468 18.4128C28.9941 18.8348 30.2691 18.894 31.311 18.894H33.8777C34.046 18.894 34.2031 18.977 34.2979 19.116L34.3759 19.2304C34.0087 19.9819 33.7319 20.7891 33.5876 21.5234H33.1168C32.2539 21.5234 31.4688 21.9994 31.0677 22.7659C30.6269 23.6081 30.169 24.7701 29.8312 25.8923H27.0227C27.4919 24.0774 28.2745 22.438 28.8863 21.3266ZM15.9895 21.5234C15.6384 21.5234 15.2941 21.5869 14.966 21.7124L14.7261 21.8042L14.8102 21.4197C14.9288 20.878 15.3292 20.4323 15.855 20.2564L16.5258 20.0321C16.75 20.5267 16.9293 21.043 17.0445 21.5234H15.9895ZM18.8616 21.5234H18.3908C18.2464 20.7891 17.9695 19.982 17.6024 19.2304L17.6803 19.1161C17.7752 18.977 17.9323 18.894 18.1006 18.894H20.6673C21.7093 18.894 22.9843 18.8348 23.9315 18.4128C24.0123 19.0706 23.8449 19.5515 23.432 19.8449C22.9585 20.1815 22.8123 20.8185 23.092 21.3266C23.7038 22.438 24.4865 24.0774 24.9557 25.8922H22.1472C21.8093 24.7701 21.3515 23.608 20.9106 22.7658C20.5095 21.9994 19.7244 21.5234 18.8616 21.5234ZM21.9973 40.7755V41.8747C21.9973 42.5 21.4886 43.0087 20.8633 43.0087C20.238 43.0087 19.7292 42.5001 19.7292 41.8747V40.7755C19.7292 40.2059 19.861 39.6463 20.1075 39.1388C20.5751 39.6038 21.2191 39.8916 21.9289 39.8916H22.2895C22.1026 40.1441 21.9973 40.4526 21.9973 40.7755ZM27.7226 38.5765C27.7214 38.5765 27.7203 38.5765 27.7191 38.5765H27.6068C27.1909 38.5765 26.7924 38.7305 26.4845 39.0101L25.9892 39.4601L25.4939 39.0102C25.186 38.7306 24.7875 38.5766 24.3716 38.5766H24.2596C24.2583 38.5766 24.2571 38.5766 24.2557 38.5766H21.9291C21.2291 38.5766 20.6596 38.007 20.6596 37.3071V27.473C20.6596 27.3265 20.7788 27.2073 20.9253 27.2073H21.6494C21.6501 27.2073 21.6508 27.2075 21.6515 27.2075C21.6524 27.2075 21.6533 27.2073 21.6542 27.2073H25.7745H25.7795H26.1978H26.2053H30.3245C30.3254 27.2073 30.3262 27.2075 30.327 27.2075C30.3277 27.2075 30.3284 27.2073 30.3291 27.2073H31.0533C31.1998 27.2073 31.319 27.3265 31.319 27.473V37.3071C31.319 38.007 30.7495 38.5766 30.0495 38.5766L27.7226 38.5765ZM32.249 41.8747C32.249 42.5 31.7402 43.0087 31.1149 43.0087C30.4897 43.0087 29.981 42.5001 29.981 41.8747V40.7755C29.981 40.4527 29.8757 40.1441 29.6887 39.8916H30.0493C30.7593 39.8916 31.4031 39.6038 31.8707 39.1388C32.1171 39.6463 32.249 40.2059 32.249 40.7755V41.8747ZM46.2306 26.388C46.0635 26.5955 45.4752 27.0874 43.6259 27.1733C43.2994 27.1885 43.0337 27.4412 43.002 27.7665C42.9705 28.0919 43.1825 28.391 43.5 28.4688C44.9784 28.8311 45.3088 29.1902 45.3672 29.2725C45.2054 29.6 43.8199 30.3596 41.359 29.9829C41.0412 29.9343 40.7339 30.1231 40.6342 30.4293C40.5345 30.7355 40.6713 31.0688 40.9573 31.2168C42.3844 31.9553 43.011 32.6576 43.0534 32.9891C42.5052 33.1849 40.3051 32.8103 38.3089 31.9066C38.0223 31.7768 37.6839 31.8683 37.5017 32.1248C37.3195 32.3813 37.3445 32.7309 37.5614 32.9589C38.6445 34.0971 39.1556 34.9939 39.2009 35.3183C38.9556 35.4316 38.3572 35.3367 37.4744 34.8636C36.5654 34.3766 35.5333 33.5845 34.7812 32.7964C34.5808 32.5865 34.2665 32.5326 34.0074 32.6643C33.7487 32.7959 33.6068 33.0817 33.6586 33.3674C33.9431 34.9418 33.7765 36.1258 33.5937 36.4121C33.403 36.388 33.0496 36.207 32.6339 35.6573V31.1584C33.8387 31.2196 35.4273 30.842 36.6761 29.7968C37.6444 28.9865 38.8002 27.4349 38.8075 24.6456C38.8076 24.5698 38.8451 24.5183 38.8764 24.4885C38.9039 24.4624 38.965 24.4199 39.0507 24.4233C39.6311 24.4506 40.0505 24.5947 40.2013 24.8187C40.3305 25.0104 40.5509 25.1198 40.7814 25.1079C42.1011 25.0382 43.4928 25.0839 44.5044 25.2301C45.9562 25.4399 46.3354 25.7949 46.3538 25.9028C46.386 26.0923 46.3479 26.242 46.2306 26.388ZM22.8587 31.2911C22.4955 31.2911 22.2012 31.5855 22.2012 31.9486V32.4683C22.2012 32.8314 22.4955 33.1258 22.8587 33.1258C23.2219 33.1258 23.5162 32.8314 23.5162 32.4683V31.9486C23.5162 31.5855 23.2218 31.2911 22.8587 31.2911ZM27.2465 31.9956C26.9727 31.757 26.5574 31.7856 26.3188 32.0593C26.2697 32.1155 26.1618 32.2097 25.9891 32.2097C25.8164 32.2097 25.7085 32.1155 25.6595 32.0593C25.4208 31.7855 25.0054 31.757 24.7317 31.9956C24.4579 32.2342 24.4294 32.6496 24.668 32.9234C25.0012 33.3056 25.4826 33.5249 25.989 33.5249C26.4954 33.5249 26.9769 33.3057 27.3101 32.9234C27.5489 32.6496 27.5203 32.2342 27.2465 31.9956Z" fill="white"/>
</g>
<defs>
<clipPath id="clip0">
<rect width="44.8881" height="44.8881" fill="white" transform="translate(3.54492 5.20789)"/>
</clipPath>
</defs>
</svg>
