<svg width="52" height="52" viewBox="0 0 52 52" fill="none" xmlns="http://www.w3.org/2000/svg">
<rect width="52" height="52" fill="#233874"/>
<path d="M0.896484 0.896545L0.896484 51.1034L51.1034 51.1034L51.1034 0.896545L0.896484 0.896545ZM17.2994 49.3677V38.8683C23.4758 38.8683 29.6523 38.541 32.01 31.9255C32.5928 30.3533 32.9294 28.7031 33.0081 27.0314C33.0081 26.7611 33.0081 26.4908 33.0081 26.2063C33.0035 24.1141 32.6265 22.0388 31.8943 20.0745L31.6339 19.4343C28.9869 13.4305 22.9551 13.4163 16.4171 13.4163H15.4335L15.4335 21.2411H30.361C30.8755 22.8436 31.1484 24.5117 31.1711 26.1921C31.1708 26.8008 31.1322 27.409 31.0553 28.0131C30.9371 28.9526 30.7387 29.8806 30.4623 30.7874H15.4479L15.4479 49.4247H2.79136L2.79136 2.76028L22.1306 2.76028C26.3293 2.82174 30.427 4.03578 33.9617 6.26549C37.4963 8.49521 40.3273 11.6519 42.1353 15.3796L42.2799 15.721C42.5837 16.347 42.873 16.9872 43.1189 17.6417C43.2057 17.8693 43.278 18.0827 43.3503 18.3103C43.5758 18.902 43.7689 19.5052 43.9289 20.1171C43.9289 20.3732 44.0735 20.6435 44.1314 20.9139C44.2616 21.5114 44.3628 22.1089 44.4496 22.7207C44.4496 22.9768 44.5364 23.2329 44.5653 23.4889C44.7775 25.2374 44.7775 27.0045 44.5653 28.7529C44.5653 29.009 44.5653 29.2651 44.4496 29.5212C44.3628 30.1329 44.2616 30.7305 44.1314 31.328C44.1314 31.5983 44.0012 31.8686 43.9289 32.1247C43.786 32.7164 43.6122 33.3005 43.4082 33.8746C43.3358 34.1022 43.2635 34.3156 43.1767 34.5433C42.9308 35.1977 42.6415 35.8379 42.3378 36.4639L42.1931 36.8054C40.3808 40.5416 37.5408 43.704 33.995 45.9343C30.4492 48.1647 26.3392 49.3738 22.1306 49.4247L17.2994 49.3677ZM49.3387 49.3677H35.6117V47.0061C39.0035 44.6269 41.7683 41.4851 43.6759 37.8425C45.5836 34.1998 46.5788 30.1615 46.5788 26.064C46.5788 21.9665 45.5836 17.9283 43.6759 14.2856C41.7683 10.6429 39.0035 7.50114 35.6117 5.12195V2.63223L49.3676 2.63223L49.3387 49.3677Z" fill="white"/>
</svg>
