<svg width="24" height="24" viewBox="0 0 24 24" fill="none" xmlns="http://www.w3.org/2000/svg">
<circle cx="12" cy="12" r="11.5" stroke="#FB4E4E"/>
<path fill-rule="evenodd" clip-rule="evenodd" d="M8.22346 14.6974C7.92551 14.9954 7.92551 15.4785 8.22346 15.7764C8.52142 16.0744 9.00449 16.0744 9.30244 15.7764L11.9999 13.0789L14.6976 15.7765C14.9955 16.0745 15.4786 16.0745 15.7765 15.7765C16.0745 15.4786 16.0745 14.9955 15.7765 14.6975L13.0789 11.9999L15.7763 9.30246C16.0743 9.00451 16.0743 8.52142 15.7763 8.22347C15.4784 7.92551 14.9953 7.92551 14.6973 8.22347L11.9999 10.9209L9.30266 8.22357C9.00471 7.92561 8.52164 7.92561 8.22368 8.22357C7.92573 8.52153 7.92573 9.00461 8.22368 9.30256L10.921 11.9999L8.22346 14.6974Z" fill="#FB4E4E"/>
</svg>
