<svg width="32" height="32" viewBox="0 0 32 32" fill="none" xmlns="http://www.w3.org/2000/svg">
<path d="M30 23V21H27.91C27.7601 20.1097 27.41 19.2652 26.886 18.53L28.364 17.05L26.95 15.636L25.471 17.115C24.7357 16.5904 23.8907 16.2399 23 16.09V14H21V16.09C20.1097 16.2398 19.2651 16.5899 18.53 17.114L17.05 15.636L15.636 17.05L17.115 18.529C16.5906 19.2644 16.2401 20.1093 16.09 21H14V23H16.09C16.2399 23.8902 16.5901 24.7348 17.114 25.47L15.636 26.95L17.05 28.364L18.529 26.885C19.2643 27.4096 20.1093 27.7601 21 27.91V30H23V27.91C23.8903 27.7602 24.7349 27.4101 25.47 26.886L26.95 28.364L28.364 26.95L26.885 25.471C27.4095 24.7356 27.76 23.8907 27.91 23H30ZM22 26C21.2089 26 20.4355 25.7654 19.7777 25.3259C19.1199 24.8864 18.6072 24.2616 18.3045 23.5307C18.0017 22.7998 17.9225 21.9956 18.0769 21.2196C18.2312 20.4437 18.6122 19.731 19.1716 19.1716C19.731 18.6122 20.4437 18.2312 21.2196 18.0769C21.9956 17.9225 22.7998 18.0017 23.5307 18.3045C24.2616 18.6072 24.8864 19.1199 25.3259 19.7777C25.7654 20.4355 26 21.2089 26 22C25.9987 23.0605 25.5768 24.0771 24.827 24.827C24.0771 25.5768 23.0605 25.9987 22 26Z" fill="white"/>
<path d="M28 6C28 5.46957 27.7893 4.96086 27.4142 4.58579C27.0391 4.21071 26.5304 4 26 4H22V2H20V4H12V2H10V4H6C5.46957 4 4.96086 4.21071 4.58579 4.58579C4.21071 4.96086 4 5.46957 4 6V26C4 26.5304 4.21071 27.0391 4.58579 27.4142C4.96086 27.7893 5.46957 28 6 28H10V26H6V6H10V8H12V6H20V8H22V6H26V12H28V6Z" fill="white"/>
</svg>
