<svg width="21" height="20" viewBox="0 0 21 20" fill="none" xmlns="http://www.w3.org/2000/svg">
<g opacity="0.5">
<path d="M9.2819 14.9998C10.8202 14.9998 12.2344 14.4707 13.3627 13.5932L17.0261 17.2565L18.2044 16.0782L14.5411 12.4148C15.4194 11.2857 15.9486 9.8715 15.9486 8.33317C15.9486 4.65734 12.9577 1.6665 9.2819 1.6665C5.60607 1.6665 2.61523 4.65734 2.61523 8.33317C2.61523 12.009 5.60607 14.9998 9.2819 14.9998ZM9.2819 3.33317C12.0394 3.33317 14.2819 5.57567 14.2819 8.33317C14.2819 11.0907 12.0394 13.3332 9.2819 13.3332C6.5244 13.3332 4.2819 11.0907 4.2819 8.33317C4.2819 5.57567 6.5244 3.33317 9.2819 3.33317Z" fill="#2C2C2C"/>
</g>
</svg>
