<svg width="22" height="20" viewBox="0 0 22 20" fill="none" xmlns="http://www.w3.org/2000/svg">
<path d="M21.2657 0.471352C20.9809 0.235612 20.6373 0.0811248 20.2714 0.0243362C19.9054 -0.0324524 19.5309 0.0105829 19.1876 0.148861L1.26549 7.35017C0.882321 7.50714 0.55616 7.77634 0.330279 8.12208C0.104398 8.46781 -0.0105247 8.87373 0.000757854 9.28598C0.0120405 9.69823 0.148995 10.0973 0.393451 10.4303C0.637908 10.7633 0.97831 11.0144 1.3695 11.1504L4.99471 12.4055L7.01483 19.0564C7.04252 19.1452 7.08258 19.2296 7.13384 19.3072C7.14184 19.3192 7.15284 19.3271 7.16084 19.3401C7.21977 19.4217 7.29094 19.4939 7.37185 19.5541C7.39444 19.5717 7.4178 19.5883 7.44186 19.6039C7.53658 19.6664 7.64147 19.7122 7.75187 19.7392L7.76488 19.7402L7.77088 19.7432C7.83771 19.7566 7.90572 19.7632 7.97389 19.7631L7.99189 19.7601C8.09431 19.7584 8.19585 19.741 8.29291 19.7084C8.31591 19.7004 8.33491 19.6885 8.35691 19.6785C8.42951 19.6489 8.49833 19.6108 8.56192 19.565C8.61258 19.5222 8.66324 19.4794 8.71393 19.4366L11.4161 16.4675L15.4463 19.575C15.8011 19.85 16.2378 19.9995 16.6874 20C17.1587 19.9995 17.6154 19.8376 17.981 19.5417C18.3467 19.2458 18.5989 18.8337 18.6955 18.3746L21.9587 2.43218C22.0325 2.07351 22.007 1.70163 21.885 1.35627C21.7629 1.0109 21.5488 0.705035 21.2657 0.471352ZM8.36991 12.722C8.23141 12.8596 8.13679 13.0348 8.09789 13.2257L7.78788 14.7227L7.00383 12.1418L11.0691 10.0346L8.36991 12.722ZM16.6724 18.0014L11.9091 14.3285C11.7098 14.1755 11.4599 14.1027 11.2091 14.1249C10.9583 14.147 10.7252 14.2624 10.556 14.448L9.68999 15.3985L9.99601 13.9184L17.0794 6.86843C17.2475 6.70013 17.3496 6.47761 17.3674 6.24098C17.3852 6.00436 17.3174 5.7692 17.1764 5.57789C17.0353 5.38659 16.8303 5.25173 16.5981 5.19763C16.366 5.14354 16.1221 5.17375 15.9104 5.28284L5.74476 10.5502L2.01954 9.19355L19.9996 2.03603L16.6724 18.0014Z" fill="#CACCCF"/>
</svg>
