<svg width="202" height="70" viewBox="0 0 202 70" fill="none" xmlns="http://www.w3.org/2000/svg">
<path d="M0 0.300293V69.6995H69.3992V0.300293H0ZM22.6742 67.3003V52.7873C31.209 52.7873 39.7438 52.335 42.9886 43.1905C43.7924 41.0197 44.2568 38.738 44.3652 36.4256C44.3652 36.052 44.3652 35.6784 44.3652 35.285C44.3895 32.3217 43.8833 29.3779 42.8706 26.5929L42.4969 25.708C38.8392 17.4092 30.4224 17.3895 21.4746 17.3895H20.1177V28.2055H40.7271C41.4357 30.419 41.8134 32.7251 41.848 35.0491C41.8477 35.8906 41.7951 36.7312 41.6907 37.5662C41.5527 38.9055 41.2894 40.2289 40.904 41.519H20.1177V67.2807H2.63516V2.87646H29.3408C35.1266 2.92188 40.7855 4.57786 45.683 7.65879C50.5805 10.7397 54.5232 15.1238 57.069 20.3197L57.2853 20.7916C57.718 21.6569 58.0916 22.5419 58.4456 23.4465C58.5636 23.7611 58.6619 24.0561 58.7602 24.3707C59.0355 25.1574 59.2715 25.9636 59.4879 26.7896C59.4879 27.1436 59.6845 27.5172 59.7632 27.8909C59.9402 28.7168 60.0975 29.5428 60.2155 30.3884C60.2155 30.7423 60.3335 31.0963 60.3728 31.4503C60.4908 32.6499 60.5891 33.8495 60.5891 35.0884C60.5891 36.3273 60.5891 37.5269 60.3728 38.7265C60.3728 39.0805 60.2548 39.4344 60.2155 39.7884C60.0975 40.634 59.9402 41.46 59.7632 42.2859C59.7632 42.6596 59.5862 43.0332 59.4879 43.3872C59.2715 44.2131 59.0355 45.0194 58.7602 45.806C58.7602 46.1207 58.5636 46.4157 58.4456 46.7303C58.0916 47.6349 57.718 48.5199 57.2853 49.3851L57.069 49.8571C54.5232 55.053 50.5805 59.4371 45.683 62.518C40.7855 65.5989 35.1266 67.2549 29.3408 67.3003H22.6742ZM66.9607 67.3003H47.9836V64.0359C52.6606 60.7942 56.4826 56.4676 59.1223 51.4262C61.762 46.3849 63.1408 40.779 63.1408 35.0884C63.1408 29.3978 61.762 23.7919 59.1223 18.7506C56.4826 13.7092 52.6606 9.38258 47.9836 6.14092V2.69947H66.9607V67.3003Z" fill="#BE172C"/>
<path d="M87.5703 2.79688H94.9448C100.412 2.79688 102.811 6.72995 102.811 11.6856C102.811 16.6413 100.451 20.5547 94.9448 20.5547H87.5703V2.79688ZM93.7452 18.0179C98.6223 18.0179 99.6449 15.2647 99.6449 11.6856C99.6449 8.10653 98.6026 5.33371 93.7452 5.33371H90.6775V18.0179H93.7452Z" fill="#BE172C"/>
<path d="M106.016 2.79688H108.867V5.49104H106.016V2.79688ZM106.016 7.69356H108.867V20.5547H106.016V7.69356Z" fill="#BE172C"/>
<path d="M111.246 7.69385H114.334L117.578 17.5266L120.705 7.69385H123.694L119.093 20.555H115.907L111.246 7.69385Z" fill="#BE172C"/>
<path d="M126.094 2.79688H128.926V5.49104H126.094V2.79688ZM126.094 7.69356H128.926V20.5547H126.094V7.69356Z" fill="#BE172C"/>
<path d="M132.545 7.69465H135.298V9.66119C135.703 8.97548 136.277 8.40547 136.966 8.00596C137.655 7.60645 138.435 7.39089 139.231 7.38C139.835 7.28053 140.453 7.32318 141.037 7.50457C141.621 7.68596 142.155 8.00109 142.596 8.42492C143.037 8.84874 143.373 9.36959 143.578 9.94606C143.782 10.5225 143.849 11.1387 143.774 11.7457V20.5755H141.001V12.4733C141.001 10.5068 140.175 9.58252 138.484 9.58252C138.045 9.57558 137.609 9.66056 137.205 9.83199C136.801 10.0034 136.437 10.2575 136.137 10.5779C135.837 10.8983 135.608 11.278 135.463 11.6925C135.319 12.107 135.262 12.5471 135.298 12.9846V20.5558H132.545V7.69465Z" fill="#BE172C"/>
<path d="M158.188 17.7041C158.188 18.3924 158.345 18.6677 158.876 18.6677C159.105 18.6861 159.335 18.6861 159.564 18.6677V20.6342C158.982 20.8089 158.381 20.9145 157.775 20.9489C156.595 20.9489 155.808 20.5556 155.592 19.3756C154.349 20.4333 152.759 20.9937 151.128 20.9489C148.768 20.9489 146.723 19.71 146.723 17.1928C146.723 14.0267 149.181 13.4957 151.56 13.2597L153.114 13.063C154.864 12.8467 155.533 12.5714 155.533 11.4505C155.533 9.95592 153.999 9.70027 152.878 9.70027C151.285 9.70027 150.164 10.3492 150.026 11.6668H147.195C147.391 8.36302 150.184 7.39941 153.094 7.39941C155.592 7.39941 158.227 8.42201 158.227 11.1162L158.188 17.7041ZM155.356 14.125C154.687 14.4956 153.938 14.6981 153.173 14.7149L152.032 14.8723C150.734 15.0493 149.554 15.5409 149.554 16.8388C149.554 18.1367 150.774 18.6087 151.993 18.6087C153.212 18.6087 155.356 17.9597 155.356 16.1702V14.125Z" fill="#BE172C"/>
<path d="M87.5117 30.3286H90.6188V37.3885H98.7013V30.3286H101.867V48.0275H98.7013V40.0827H90.6188V48.0865H87.5117V30.3286Z" fill="#BE172C"/>
<path d="M116.557 45.2358C116.557 45.9241 116.714 46.1994 117.225 46.1994C117.461 46.2185 117.698 46.2185 117.933 46.1994V48.166C117.351 48.3407 116.751 48.4463 116.144 48.4806C114.964 48.4806 114.177 48.0873 113.941 46.9074C112.706 47.9654 111.122 48.5262 109.497 48.4806C107.137 48.4806 105.092 47.2417 105.092 44.7245C105.092 41.5584 107.55 41.0274 109.91 40.7914L111.483 40.5948C113.214 40.3785 113.902 40.1032 113.902 38.9822C113.902 37.4877 112.348 37.232 111.227 37.232C109.635 37.232 108.514 37.881 108.396 39.1985H105.564C105.76 35.8948 108.553 34.9312 111.463 34.9312C113.981 34.9312 116.616 35.9538 116.616 38.6479L116.557 45.2358ZM113.666 41.6567C112.99 42.0268 112.234 42.2291 111.463 42.2467L110.323 42.404C109.045 42.581 107.865 43.0726 107.865 44.3705C107.865 45.6685 109.084 46.1404 110.303 46.1404C111.522 46.1404 113.666 45.5505 113.666 43.7609V41.6567Z" fill="#BE172C"/>
<path d="M120.371 35.2262H123.026V37.7237C123.294 36.9285 123.796 36.2327 124.466 35.7275C125.137 35.2222 125.944 34.931 126.782 34.8919C127.136 34.8687 127.49 34.8687 127.844 34.8919V37.645C127.443 37.5593 127.035 37.5132 126.625 37.5074C124.658 37.5074 123.144 39.061 123.144 41.9124V48.0284H120.371V35.2262Z" fill="#BE172C"/>
<path d="M130.008 35.2251H132.702V37.0147C133.1 36.3347 133.678 35.7771 134.371 35.4026C135.065 35.0281 135.848 34.8511 136.635 34.8908C137.38 34.835 138.124 35.0086 138.768 35.3883C139.411 35.768 139.923 36.3355 140.234 37.0147C140.656 36.3569 141.239 35.8171 141.927 35.4456C142.614 35.0742 143.385 34.8833 144.167 34.8908C144.754 34.8041 145.354 34.8563 145.917 35.0434C146.481 35.2304 146.993 35.5471 147.411 35.9679C147.83 36.3887 148.145 36.9018 148.329 37.4662C148.514 38.0305 148.563 38.6303 148.474 39.2172V48.0863H145.838V40.6331C145.838 38.6666 145.701 37.172 143.498 37.172C141.296 37.172 140.765 38.4306 140.765 40.6135V48.1453H137.913V39.8859C137.913 38.0963 137.382 37.172 135.652 37.172C135.244 37.1961 134.845 37.3032 134.479 37.4866C134.114 37.67 133.79 37.9259 133.527 38.2388C133.264 38.5516 133.067 38.9148 132.949 39.3062C132.831 39.6976 132.793 40.1089 132.84 40.5151V48.1453H130.008V35.2251Z" fill="#BE172C"/>
<path d="M151.619 41.6564C151.571 40.7729 151.703 39.8886 152.007 39.0578C152.312 38.227 152.783 37.467 153.391 36.8243C153.999 36.1816 154.732 35.6697 155.545 35.3198C156.358 34.97 157.234 34.7896 158.119 34.7896C159.004 34.7896 159.879 34.97 160.692 35.3198C161.505 35.6697 162.238 36.1816 162.846 36.8243C163.454 37.467 163.925 38.227 164.23 39.0578C164.535 39.8886 164.667 40.7729 164.618 41.6564C164.667 42.54 164.535 43.4243 164.23 44.2551C163.925 45.0859 163.454 45.8459 162.846 46.4886C162.238 47.1313 161.505 47.6432 160.692 47.9931C159.879 48.3429 159.004 48.5233 158.119 48.5233C157.234 48.5233 156.358 48.3429 155.545 47.9931C154.732 47.6432 153.999 47.1313 153.391 46.4886C152.783 45.8459 152.312 45.0859 152.007 44.2551C151.703 43.4243 151.571 42.54 151.619 41.6564ZM161.786 41.6564C161.786 39.4343 160.665 37.1137 158.128 37.1137C155.592 37.1137 154.471 39.4343 154.471 41.6564C154.471 43.8786 155.592 46.1992 158.128 46.1992C160.665 46.1992 161.786 43.8983 161.786 41.6564Z" fill="#BE172C"/>
<path d="M167.588 35.2259H170.262V37.1925C170.664 36.5042 171.238 35.9321 171.928 35.5322C172.617 35.1323 173.398 34.9184 174.195 34.9113C174.796 34.8326 175.407 34.8896 175.983 35.0782C176.559 35.2668 177.085 35.5822 177.523 36.0011C177.96 36.42 178.299 36.9318 178.512 37.4987C178.726 38.0657 178.81 38.6734 178.758 39.277V48.1068H176.044V40.0046C176.044 38.0381 175.218 37.1138 173.527 37.1138C173.095 37.1178 172.668 37.2108 172.273 37.3871C171.878 37.5633 171.524 37.819 171.232 38.1383C170.941 38.4575 170.718 38.8334 170.578 39.2425C170.439 39.6515 170.385 40.085 170.42 40.5159V48.0871H167.588V35.2259Z" fill="#BE172C"/>
<path d="M182.494 30.3286H185.326V33.0228H182.494V30.3286ZM182.494 35.2253H185.326V48.0865H182.494V35.2253Z" fill="#BE172C"/>
<path d="M199.779 45.2358C199.779 45.9241 199.917 46.1994 200.448 46.1994C200.677 46.2185 200.907 46.2185 201.136 46.1994V48.166C200.555 48.3423 199.954 48.448 199.347 48.4806C198.186 48.4806 197.38 48.0873 197.164 46.9074C195.923 47.9683 194.332 48.5292 192.7 48.4806C190.34 48.4806 188.314 47.2417 188.314 44.7245C188.314 41.5584 190.773 41.0274 193.132 40.7914L194.706 40.5948C196.436 40.3785 197.105 40.1032 197.105 38.9822C197.105 37.4877 195.571 37.232 194.45 37.232C192.857 37.232 191.736 37.881 191.618 39.1985H188.786C188.983 35.8948 191.756 34.9312 194.686 34.9312C197.203 34.9312 199.838 35.9538 199.838 38.6479L199.779 45.2358ZM196.948 41.6567C196.27 42.024 195.515 42.2261 194.745 42.2467L193.604 42.404C192.307 42.581 191.146 43.0726 191.146 44.3705C191.146 45.6685 192.366 46.1404 193.585 46.1404C194.804 46.1404 196.948 45.4915 196.948 43.7019V41.6567Z" fill="#BE172C"/>
<path d="M87.5117 60.0044H89.1636V65.8057H91.8184V60.0044H93.4703V65.8057H96.1448V60.0044H97.7967V67.2216H87.5117V60.0044Z" fill="#233874"/>
<path d="M100.51 60.0044H102.162V63.4655L105.308 60.0044H107.275L104.463 63.0329L107.491 67.2216H105.524L103.342 64.2325L102.162 65.4714V67.2019H100.51V60.0044Z" fill="#233874"/>
<path d="M108.532 63.6229C108.501 62.8341 108.708 62.0542 109.126 61.3845C109.544 60.7149 110.154 60.1865 110.876 59.8682C111.599 59.5498 112.4 59.4562 113.176 59.5995C113.953 59.7429 114.668 60.1165 115.229 60.6718C115.79 61.2271 116.171 61.9384 116.322 62.7132C116.474 63.4879 116.389 64.2903 116.078 65.016C115.767 65.7416 115.245 66.3569 114.58 66.7819C113.914 67.2068 113.137 67.4217 112.347 67.3987C111.848 67.4039 111.353 67.31 110.89 67.1226C110.428 66.9352 110.007 66.6579 109.652 66.3068C109.297 65.9556 109.016 65.5376 108.824 65.077C108.631 64.6163 108.532 64.1221 108.532 63.6229ZM114.57 63.6229C114.58 63.3236 114.531 63.0252 114.424 62.7454C114.317 62.4655 114.155 62.2099 113.948 61.9936C113.741 61.7773 113.493 61.6047 113.218 61.486C112.943 61.3673 112.647 61.3048 112.347 61.3024C112.05 61.3016 111.755 61.3623 111.482 61.4807C111.208 61.5991 110.963 61.7727 110.759 61.9905C110.556 62.2084 110.4 62.4658 110.301 62.7467C110.203 63.0276 110.163 63.3259 110.184 63.6229C110.171 63.9222 110.218 64.2211 110.322 64.5019C110.427 64.7828 110.586 65.0399 110.791 65.258C110.997 65.4762 111.244 65.651 111.518 65.7721C111.792 65.8932 112.087 65.9581 112.387 65.9631C112.687 65.9639 112.985 65.9026 113.26 65.7832C113.536 65.6638 113.784 65.4888 113.989 65.2692C114.194 65.0495 114.351 64.7899 114.451 64.5066C114.551 64.2234 114.591 63.9225 114.57 63.6229Z" fill="#233874"/>
<path d="M117.461 67.2214L117.599 65.8645H118.071C118.897 65.8645 119.486 65.4515 119.486 59.9648H124.934V67.182H123.282V61.2824H121.02C121.02 66.5331 120.037 67.182 118.444 67.182C118.118 67.2145 117.789 67.2277 117.461 67.2214Z" fill="#233874"/>
<path d="M132.073 67.221V66.336C131.788 66.6768 131.429 66.9478 131.023 67.1285C130.618 67.3091 130.176 67.3946 129.732 67.3783C129.412 67.4139 129.087 67.3823 128.78 67.2854C128.472 67.1886 128.188 67.0286 127.945 66.8158C127.703 66.603 127.508 66.342 127.372 66.0495C127.236 65.7569 127.162 65.4393 127.156 65.1168C127.156 63.5239 128.395 62.7569 130.086 62.7569C130.754 62.7484 131.418 62.848 132.053 63.0519V62.9143C132.053 61.9113 131.424 61.3803 130.263 61.3803C129.584 61.3969 128.915 61.5507 128.297 61.8327L127.845 60.4954C128.704 60.0852 129.646 59.8767 130.598 59.8858C131.019 59.8264 131.448 59.8639 131.852 59.9956C132.257 60.1272 132.626 60.3495 132.931 60.6454C133.236 60.9413 133.47 61.3031 133.615 61.7031C133.759 62.1031 133.81 62.5308 133.764 62.9536V67.221H132.073ZM132.073 64.2122C131.546 64.0094 130.985 63.9092 130.421 63.9172C129.378 63.9172 128.769 64.3498 128.769 65.0578C128.769 65.7657 129.378 66.1394 130.165 66.1394C131.247 66.1394 132.132 65.5101 132.132 64.6055L132.073 64.2122Z" fill="#233874"/>
<path d="M139.23 65.8057H140.017C140.649 64.2476 140.925 62.5678 140.823 60.8893V60.0044H146.428V65.8057H147.451L147.234 68.9718H145.838V67.2216H140.764L140.607 68.9718H139.23V65.8057ZM144.756 65.8057V61.4203H142.357V62.3839C142.387 63.5597 142.159 64.7277 141.689 65.8057H144.756Z" fill="#233874"/>
<path d="M149.496 60.0044H151.03V64.8421C152.171 63.2295 153.292 61.617 154.452 60.0044H156.005V67.2216H154.413V62.4036L151.03 67.2216H149.477L149.496 60.0044Z" fill="#233874"/>
<path d="M158.051 66.1994L158.837 65.1178C159.471 65.6675 160.28 65.9741 161.119 65.9831C161.866 65.9831 162.475 65.5701 162.475 64.9802C162.475 64.3902 161.964 64.0755 161.02 64.0755H160.116V62.876H161.02C161.787 62.876 162.279 62.4826 162.279 61.932C162.279 61.3814 161.787 61.1257 161.099 61.1257C160.347 61.1201 159.616 61.3775 159.034 61.8534L158.306 60.8111C159.128 60.1267 160.167 59.7573 161.237 59.7688C162.829 59.7688 163.95 60.5948 163.95 61.7354C163.959 62.0958 163.853 62.4495 163.648 62.7462C163.443 63.0428 163.15 63.2672 162.81 63.3873C163.196 63.4855 163.537 63.7125 163.776 64.0307C164.016 64.3489 164.14 64.7394 164.127 65.1375C164.127 66.3567 162.967 67.34 161.217 67.34C160.057 67.3618 158.93 66.9557 158.051 66.1994Z" fill="#233874"/>
<path d="M170.893 67.2214V66.3365C170.608 66.6772 170.249 66.9483 169.844 67.129C169.438 67.3096 168.996 67.3951 168.553 67.3788C168.233 67.4113 167.909 67.3776 167.603 67.2796C167.297 67.1816 167.014 67.0215 166.772 66.8093C166.53 66.5971 166.335 66.3373 166.198 66.0461C166.061 65.755 165.986 65.4388 165.977 65.1173C165.977 63.5244 167.235 62.7574 168.907 62.7574C169.574 62.7488 170.238 62.8485 170.873 63.0524V62.9147C170.873 61.9118 170.244 61.3808 169.084 61.3808C168.404 61.3973 167.735 61.5512 167.117 61.8331L166.665 60.4959C167.524 60.0857 168.466 59.8772 169.418 59.8863C169.84 59.8275 170.27 59.8654 170.675 59.9969C171.08 60.1285 171.45 60.3504 171.757 60.6459C172.063 60.9413 172.299 61.3026 172.446 61.7025C172.593 62.1023 172.647 62.5303 172.604 62.9541V67.2214H170.893ZM170.893 64.2126C170.367 64.0084 169.806 63.9082 169.241 63.9177C168.199 63.9177 167.589 64.3503 167.589 65.0582C167.589 65.7662 168.199 66.1399 168.985 66.1399C169.772 66.1399 170.952 65.5106 170.952 64.6059L170.893 64.2126Z" fill="#233874"/>
<path d="M175.16 60.0039H176.792V64.8416L180.195 60.0039H181.768V67.2211H180.155V62.4031L176.733 67.2211H175.16V60.0039ZM176.34 57.2704L177.343 57.0737C177.39 57.3392 177.531 57.5788 177.741 57.7486C177.95 57.9183 178.214 58.0069 178.484 57.998C178.752 58.0029 179.014 57.9128 179.222 57.7438C179.431 57.5747 179.573 57.3374 179.624 57.0737L180.607 57.2704C180.556 57.8009 180.31 58.2935 179.915 58.6519C179.521 59.0103 179.007 59.2088 178.474 59.2088C177.941 59.2088 177.427 59.0103 177.032 58.6519C176.638 58.2935 176.391 57.8009 176.34 57.2704Z" fill="#233874"/>
<path d="M184.461 60.0044H186.113V62.9345H189.299V60.0044H190.951V67.2216H189.299V64.2325H186.113V67.1429H184.461V60.0044Z" fill="#233874"/>
<path d="M198.227 67.221V66.336C197.942 66.6768 197.583 66.9478 197.178 67.1285C196.772 67.3091 196.33 67.3946 195.887 67.3783C195.566 67.4139 195.242 67.3823 194.934 67.2854C194.626 67.1886 194.342 67.0286 194.1 66.8158C193.857 66.603 193.662 66.342 193.526 66.0495C193.39 65.7569 193.317 65.4393 193.311 65.1168C193.311 63.5239 194.549 62.7569 196.241 62.7569C196.908 62.7484 197.572 62.848 198.207 63.0519V62.9143C198.207 61.9113 197.578 61.3803 196.418 61.3803C195.738 61.3969 195.069 61.5507 194.451 61.8327L193.999 60.4954C194.858 60.0852 195.8 59.8767 196.752 59.8858C197.173 59.8264 197.602 59.8639 198.007 59.9956C198.411 60.1272 198.78 60.3495 199.085 60.6454C199.391 60.9413 199.624 61.3031 199.769 61.7031C199.913 62.1031 199.964 62.5308 199.918 62.9536V67.221H198.227ZM198.227 64.2318C197.7 64.029 197.139 63.9289 196.575 63.9368C195.533 63.9368 194.923 64.3695 194.923 65.0774C194.923 65.7854 195.533 66.159 196.319 66.159C197.106 66.159 198.286 65.5298 198.286 64.6251L198.227 64.2318Z" fill="#233874"/>
</svg>
