<svg width="260" height="118" viewBox="0 0 260 118" fill="none" xmlns="http://www.w3.org/2000/svg">
<circle r="29.5" transform="matrix(-1 0 0 1 59 59)" stroke="#FFCC21"/>
<circle opacity="0.5" r="58.5" transform="matrix(-1 0 0 1 59 59)" stroke="#FFCC21"/>
<g filter="url(#filter0_dd)">
<rect x="39" y="40" width="205" height="38" rx="19" fill="white"/>
<path d="M73 59C73 66.732 66.732 73 59 73C51.268 73 45 66.732 45 59C45 51.268 51.268 45 59 45C66.732 45 73 51.268 73 59ZM56.0883 59C56.0883 60.6081 57.3919 61.9117 59 61.9117C60.6081 61.9117 61.9117 60.6081 61.9117 59C61.9117 57.3919 60.6081 56.0883 59 56.0883C57.3919 56.0883 56.0883 57.3919 56.0883 59Z" fill="#FFCC21"/>
</g>
<defs>
<filter id="filter0_dd" x="23" y="28" width="237" height="70" filterUnits="userSpaceOnUse" color-interpolation-filters="sRGB">
<feFlood flood-opacity="0" result="BackgroundImageFix"/>
<feColorMatrix in="SourceAlpha" type="matrix" values="0 0 0 0 0 0 0 0 0 0 0 0 0 0 0 0 0 0 127 0"/>
<feOffset dy="4"/>
<feGaussianBlur stdDeviation="8"/>
<feColorMatrix type="matrix" values="0 0 0 0 0.2 0 0 0 0 0.2 0 0 0 0 0.2 0 0 0 0.08 0"/>
<feBlend mode="normal" in2="BackgroundImageFix" result="effect1_dropShadow"/>
<feColorMatrix in="SourceAlpha" type="matrix" values="0 0 0 0 0 0 0 0 0 0 0 0 0 0 0 0 0 0 127 0"/>
<feOffset dy="4"/>
<feGaussianBlur stdDeviation="2"/>
<feColorMatrix type="matrix" values="0 0 0 0 0.2 0 0 0 0 0.2 0 0 0 0 0.2 0 0 0 0.04 0"/>
<feBlend mode="normal" in2="effect1_dropShadow" result="effect2_dropShadow"/>
<feBlend mode="normal" in="SourceGraphic" in2="effect2_dropShadow" result="shape"/>
</filter>
</defs>
</svg>
