<svg width="237" height="70" viewBox="0 0 237 70" fill="none" xmlns="http://www.w3.org/2000/svg">
<g filter="url(#filter0_dd)">
<rect x="16" y="12" width="205" height="38" rx="19" fill="white"/>
<path d="M50 31C50 38.732 43.732 45 36 45C28.268 45 22 38.732 22 31C22 23.268 28.268 17 36 17C43.732 17 50 23.268 50 31ZM33.0883 31C33.0883 32.6081 34.3919 33.9117 36 33.9117C37.6081 33.9117 38.9117 32.6081 38.9117 31C38.9117 29.3919 37.6081 28.0883 36 28.0883C34.3919 28.0883 33.0883 29.3919 33.0883 31Z" fill="#FFCC21"/>
<path d="M75.0088 37.5H73.3828V29.335H69.0059V37.5H67.3711V27.9902H75.0088V37.5ZM85.6523 32.8506C85.6523 34.2979 85.3213 35.4639 84.6592 36.3486C83.9971 37.2334 83.1006 37.6758 81.9697 37.6758C80.8154 37.6758 79.9072 37.3096 79.2451 36.5771V41.1562H77.6191V27.9902H79.1045L79.1836 29.0449C79.8457 28.2246 80.7656 27.8145 81.9434 27.8145C83.0859 27.8145 83.9883 28.2451 84.6504 29.1064C85.3184 29.9678 85.6523 31.166 85.6523 32.7012V32.8506ZM84.0264 32.666C84.0264 31.5938 83.7979 30.7471 83.3408 30.126C82.8838 29.5049 82.2568 29.1943 81.46 29.1943C80.4756 29.1943 79.7373 29.6309 79.2451 30.5039V35.0479C79.7314 35.915 80.4756 36.3486 81.4775 36.3486C82.2568 36.3486 82.875 36.041 83.332 35.4258C83.7949 34.8047 84.0264 33.8848 84.0264 32.666ZM87.7617 36.6475C87.7617 36.3662 87.8438 36.1318 88.0078 35.9443C88.1777 35.7568 88.4297 35.6631 88.7637 35.6631C89.0977 35.6631 89.3496 35.7568 89.5195 35.9443C89.6953 36.1318 89.7832 36.3662 89.7832 36.6475C89.7832 36.917 89.6953 37.1426 89.5195 37.3242C89.3496 37.5059 89.0977 37.5967 88.7637 37.5967C88.4297 37.5967 88.1777 37.5059 88.0078 37.3242C87.8438 37.1426 87.7617 36.917 87.7617 36.6475ZM100.515 31.752H98.959V37.5H97.2715V24.7031H98.959V30.3457H100.277L104.751 24.7031H106.852L101.965 30.9082L107.212 37.5H105.146L100.515 31.752ZM116.827 24.7031H118.515V37.5H116.827V27.6387L110.525 37.5H108.829V24.7031H110.525V34.5645L116.827 24.7031ZM123.771 24.7031L127.954 35.1445L132.138 24.7031H134.326V37.5H132.639V32.5166L132.797 27.1377L128.596 37.5H127.304L123.111 27.1641L123.278 32.5166V37.5H121.591V24.7031H123.771ZM142.922 37.5C142.828 37.3125 142.752 36.9785 142.693 36.498C141.938 37.2832 141.035 37.6758 139.986 37.6758C139.049 37.6758 138.278 37.4121 137.675 36.8848C137.077 36.3516 136.778 35.6777 136.778 34.8633C136.778 33.873 137.153 33.1055 137.903 32.5605C138.659 32.0098 139.72 31.7344 141.085 31.7344H142.667V30.9873C142.667 30.4189 142.497 29.9678 142.157 29.6338C141.817 29.2939 141.316 29.124 140.654 29.124C140.074 29.124 139.588 29.2705 139.195 29.5635C138.803 29.8564 138.606 30.2109 138.606 30.627H136.972C136.972 30.1523 137.139 29.6953 137.473 29.2559C137.812 28.8105 138.27 28.459 138.844 28.2012C139.424 27.9434 140.06 27.8145 140.751 27.8145C141.847 27.8145 142.705 28.0898 143.326 28.6406C143.947 29.1855 144.27 29.9385 144.293 30.8994V35.2764C144.293 36.1494 144.404 36.8438 144.627 37.3594V37.5H142.922ZM140.224 36.2607C140.733 36.2607 141.217 36.1289 141.674 35.8652C142.131 35.6016 142.462 35.2588 142.667 34.8369V32.8857H141.393C139.4 32.8857 138.404 33.4688 138.404 34.6348C138.404 35.1445 138.574 35.543 138.914 35.8301C139.254 36.1172 139.69 36.2607 140.224 36.2607ZM146.789 40.0488L145.866 39.416C146.417 38.6484 146.704 37.8574 146.728 37.043V35.5752H148.318V36.8496C148.318 37.4414 148.172 38.0332 147.879 38.625C147.592 39.2168 147.229 39.6914 146.789 40.0488ZM154.761 36.1729L155.323 35.4785C155.956 34.6582 156.316 33.4277 156.404 31.7871L156.554 27.9902H162.68V36.1729H163.901V40.2949H162.275V37.5H155.64V40.2949H154.014L154.022 36.1729H154.761ZM156.686 36.1729H161.054V29.4932H158.127L158.03 31.7607C157.931 33.6533 157.482 35.124 156.686 36.1729ZM165.738 36.6475C165.738 36.3662 165.82 36.1318 165.984 35.9443C166.154 35.7568 166.406 35.6631 166.74 35.6631C167.074 35.6631 167.326 35.7568 167.496 35.9443C167.672 36.1318 167.76 36.3662 167.76 36.6475C167.76 36.917 167.672 37.1426 167.496 37.3242C167.326 37.5059 167.074 37.5967 166.74 37.5967C166.406 37.5967 166.154 37.5059 165.984 37.3242C165.82 37.1426 165.738 36.917 165.738 36.6475ZM175.626 37.5H173.991V26.6631L170.713 27.8672V26.3906L175.371 24.6416H175.626V37.5Z" fill="#72787E"/>
</g>
<defs>
<filter id="filter0_dd" x="0" y="0" width="237" height="70" filterUnits="userSpaceOnUse" color-interpolation-filters="sRGB">
<feFlood flood-opacity="0" result="BackgroundImageFix"/>
<feColorMatrix in="SourceAlpha" type="matrix" values="0 0 0 0 0 0 0 0 0 0 0 0 0 0 0 0 0 0 127 0"/>
<feOffset dy="4"/>
<feGaussianBlur stdDeviation="8"/>
<feColorMatrix type="matrix" values="0 0 0 0 0.2 0 0 0 0 0.2 0 0 0 0 0.2 0 0 0 0.08 0"/>
<feBlend mode="normal" in2="BackgroundImageFix" result="effect1_dropShadow"/>
<feColorMatrix in="SourceAlpha" type="matrix" values="0 0 0 0 0 0 0 0 0 0 0 0 0 0 0 0 0 0 127 0"/>
<feOffset dy="4"/>
<feGaussianBlur stdDeviation="2"/>
<feColorMatrix type="matrix" values="0 0 0 0 0.2 0 0 0 0 0.2 0 0 0 0 0.2 0 0 0 0.04 0"/>
<feBlend mode="normal" in2="effect1_dropShadow" result="effect2_dropShadow"/>
<feBlend mode="normal" in="SourceGraphic" in2="effect2_dropShadow" result="shape"/>
</filter>
</defs>
</svg>
