<svg width="260" height="118" viewBox="0 0 260 118" fill="none" xmlns="http://www.w3.org/2000/svg">
<circle r="29.5" transform="matrix(-1 0 0 1 59 59)" stroke="#FFCC21"/>
<circle opacity="0.5" r="58.5" transform="matrix(-1 0 0 1 59 59)" stroke="#FFCC21"/>
<g filter="url(#filter0_dd)">
<rect x="39" y="40" width="205" height="38" rx="19" fill="white"/>
<path d="M73 59C73 66.732 66.732 73 59 73C51.268 73 45 66.732 45 59C45 51.268 51.268 45 59 45C66.732 45 73 51.268 73 59ZM56.0883 59C56.0883 60.6081 57.3919 61.9117 59 61.9117C60.6081 61.9117 61.9117 60.6081 61.9117 59C61.9117 57.3919 60.6081 56.0883 59 56.0883C57.3919 56.0883 56.0883 57.3919 56.0883 59Z" fill="#FFCC21"/>
<path d="M98.0088 65.5H96.3828V57.335H92.0059V65.5H90.3711V55.9902H98.0088V65.5ZM108.652 60.8506C108.652 62.2979 108.321 63.4639 107.659 64.3486C106.997 65.2334 106.101 65.6758 104.97 65.6758C103.815 65.6758 102.907 65.3096 102.245 64.5771V69.1562H100.619V55.9902H102.104L102.184 57.0449C102.846 56.2246 103.766 55.8145 104.943 55.8145C106.086 55.8145 106.988 56.2451 107.65 57.1064C108.318 57.9678 108.652 59.166 108.652 60.7012V60.8506ZM107.026 60.666C107.026 59.5938 106.798 58.7471 106.341 58.126C105.884 57.5049 105.257 57.1943 104.46 57.1943C103.476 57.1943 102.737 57.6309 102.245 58.5039V63.0479C102.731 63.915 103.476 64.3486 104.478 64.3486C105.257 64.3486 105.875 64.041 106.332 63.4258C106.795 62.8047 107.026 61.8848 107.026 60.666ZM110.762 64.6475C110.762 64.3662 110.844 64.1318 111.008 63.9443C111.178 63.7568 111.43 63.6631 111.764 63.6631C112.098 63.6631 112.35 63.7568 112.52 63.9443C112.695 64.1318 112.783 64.3662 112.783 64.6475C112.783 64.917 112.695 65.1426 112.52 65.3242C112.35 65.5059 112.098 65.5967 111.764 65.5967C111.43 65.5967 111.178 65.5059 111.008 65.3242C110.844 65.1426 110.762 64.917 110.762 64.6475ZM123.515 59.752H121.959V65.5H120.271V52.7031H121.959V58.3457H123.277L127.751 52.7031H129.852L124.965 58.9082L130.212 65.5H128.146L123.515 59.752ZM139.827 52.7031H141.515V65.5H139.827V55.6387L133.525 65.5H131.829V52.7031H133.525V62.5645L139.827 52.7031ZM146.771 52.7031L150.954 63.1445L155.138 52.7031H157.326V65.5H155.639V60.5166L155.797 55.1377L151.596 65.5H150.304L146.111 55.1641L146.278 60.5166V65.5H144.591V52.7031H146.771ZM165.922 65.5C165.828 65.3125 165.752 64.9785 165.693 64.498C164.938 65.2832 164.035 65.6758 162.986 65.6758C162.049 65.6758 161.278 65.4121 160.675 64.8848C160.077 64.3516 159.778 63.6777 159.778 62.8633C159.778 61.873 160.153 61.1055 160.903 60.5605C161.659 60.0098 162.72 59.7344 164.085 59.7344H165.667V58.9873C165.667 58.4189 165.497 57.9678 165.157 57.6338C164.817 57.2939 164.316 57.124 163.654 57.124C163.074 57.124 162.588 57.2705 162.195 57.5635C161.803 57.8564 161.606 58.2109 161.606 58.627H159.972C159.972 58.1523 160.139 57.6953 160.473 57.2559C160.812 56.8105 161.27 56.459 161.844 56.2012C162.424 55.9434 163.06 55.8145 163.751 55.8145C164.847 55.8145 165.705 56.0898 166.326 56.6406C166.947 57.1855 167.27 57.9385 167.293 58.8994V63.2764C167.293 64.1494 167.404 64.8438 167.627 65.3594V65.5H165.922ZM163.224 64.2607C163.733 64.2607 164.217 64.1289 164.674 63.8652C165.131 63.6016 165.462 63.2588 165.667 62.8369V60.8857H164.393C162.4 60.8857 161.404 61.4688 161.404 62.6348C161.404 63.1445 161.574 63.543 161.914 63.8301C162.254 64.1172 162.69 64.2607 163.224 64.2607ZM169.789 68.0488L168.866 67.416C169.417 66.6484 169.704 65.8574 169.728 65.043V63.5752H171.318V64.8496C171.318 65.4414 171.172 66.0332 170.879 66.625C170.592 67.2168 170.229 67.6914 169.789 68.0488ZM177.761 64.1729L178.323 63.4785C178.956 62.6582 179.316 61.4277 179.404 59.7871L179.554 55.9902H185.68V64.1729H186.901V68.2949H185.275V65.5H178.64V68.2949H177.014L177.022 64.1729H177.761ZM179.686 64.1729H184.054V57.4932H181.127L181.03 59.7607C180.931 61.6533 180.482 63.124 179.686 64.1729ZM188.738 64.6475C188.738 64.3662 188.82 64.1318 188.984 63.9443C189.154 63.7568 189.406 63.6631 189.74 63.6631C190.074 63.6631 190.326 63.7568 190.496 63.9443C190.672 64.1318 190.76 64.3662 190.76 64.6475C190.76 64.917 190.672 65.1426 190.496 65.3242C190.326 65.5059 190.074 65.5967 189.74 65.5967C189.406 65.5967 189.154 65.5059 188.984 65.3242C188.82 65.1426 188.738 64.917 188.738 64.6475ZM198.626 65.5H196.991V54.6631L193.713 55.8672V54.3906L198.371 52.6416H198.626V65.5Z" fill="#72787E"/>
</g>
<defs>
<filter id="filter0_dd" x="23" y="28" width="237" height="70" filterUnits="userSpaceOnUse" color-interpolation-filters="sRGB">
<feFlood flood-opacity="0" result="BackgroundImageFix"/>
<feColorMatrix in="SourceAlpha" type="matrix" values="0 0 0 0 0 0 0 0 0 0 0 0 0 0 0 0 0 0 127 0"/>
<feOffset dy="4"/>
<feGaussianBlur stdDeviation="8"/>
<feColorMatrix type="matrix" values="0 0 0 0 0.2 0 0 0 0 0.2 0 0 0 0 0.2 0 0 0 0.08 0"/>
<feBlend mode="normal" in2="BackgroundImageFix" result="effect1_dropShadow"/>
<feColorMatrix in="SourceAlpha" type="matrix" values="0 0 0 0 0 0 0 0 0 0 0 0 0 0 0 0 0 0 127 0"/>
<feOffset dy="4"/>
<feGaussianBlur stdDeviation="2"/>
<feColorMatrix type="matrix" values="0 0 0 0 0.2 0 0 0 0 0.2 0 0 0 0 0.2 0 0 0 0.04 0"/>
<feBlend mode="normal" in2="effect1_dropShadow" result="effect2_dropShadow"/>
<feBlend mode="normal" in="SourceGraphic" in2="effect2_dropShadow" result="shape"/>
</filter>
</defs>
</svg>
