<svg width="29" height="28" viewBox="0 0 29 28" fill="none" xmlns="http://www.w3.org/2000/svg">
<path d="M16.0001 28.0001C15.8734 28.0004 15.7479 27.9766 15.6301 27.9301C15.4662 27.8648 15.3226 27.7573 15.2137 27.6185C15.1048 27.4798 15.0346 27.3147 15.0101 27.1401L14.0101 20.1401L16.0101 19.8601L16.7601 25.1301L20.0001 22.5201V15.0001C19.9993 14.8685 20.0245 14.738 20.0743 14.6162C20.1241 14.4943 20.1974 14.3835 20.2901 14.2901L24.3601 10.2201C25.1987 9.38711 25.8638 8.39613 26.317 7.30445C26.7701 6.21276 27.0023 5.04206 27.0001 3.86006V2.00006H25.1401C23.9581 1.99782 22.7874 2.22999 21.6957 2.68314C20.604 3.13629 19.613 3.80142 18.7801 4.64006L14.7101 8.71006C14.6166 8.80274 14.5058 8.87607 14.384 8.92583C14.2621 8.9756 14.1317 9.00082 14.0001 9.00006H6.48006L3.87006 12.2601L9.14007 13.0101L8.86006 15.0101L1.86006 14.0101C1.68541 13.9856 1.52034 13.9153 1.38159 13.8064C1.24285 13.6975 1.13537 13.5539 1.07006 13.3901C1.00395 13.2251 0.98299 13.0455 1.00936 12.8697C1.03572 12.6939 1.10845 12.5284 1.22007 12.3901L5.22006 7.39006C5.31219 7.27037 5.43022 7.1731 5.56531 7.10556C5.7004 7.03801 5.84904 7.00194 6.00006 7.00006H13.5901L17.3601 3.22006C18.3792 2.19517 19.5917 1.3828 20.9272 0.830052C22.2627 0.277309 23.6947 -0.00480712 25.1401 6.19679e-05H27.0001C27.5305 6.19679e-05 28.0392 0.210776 28.4143 0.585848C28.7894 0.960921 29.0001 1.46963 29.0001 2.00006V3.86006C29.0049 5.30543 28.7228 6.73738 28.1701 8.07289C27.6173 9.4084 26.805 10.6209 25.7801 11.6401L22.0001 15.4101V23.0001C21.9994 23.1503 21.9649 23.2984 21.8991 23.4334C21.8333 23.5685 21.7379 23.6869 21.6201 23.7801L16.6201 27.7801C16.4441 27.9212 16.2256 27.9988 16.0001 28.0001Z" fill="#A0A4A8"/>
</svg>
